<?xml version="1.0" standalone="no"?>
<!DOCTYPE svg PUBLIC "-//W3C//DTD SVG 20010904//EN"
 "http://www.w3.org/TR/2001/REC-SVG-20010904/DTD/svg10.dtd">
<svg version="1.0" xmlns="http://www.w3.org/2000/svg"
 width="230.000000pt" height="300.000000pt" viewBox="0 0 230.000000 300.000000"
 preserveAspectRatio="xMidYMid meet">
<metadata>
Created by potrace 1.10, written by Peter Selinger 2001-2011
</metadata>
<g transform="translate(0.000000,300.000000) scale(0.050000,-0.050000)"
fill="#000000" stroke="none">
<path d="M1721 5957 c-147 -43 -241 -167 -241 -319 0 -33 -9 -78 -21 -99 -14
-26 -14 -39 0 -39 11 0 38 -36 61 -79 56 -111 180 -235 250 -253 33 -8 71 -30
85 -49 14 -20 41 -31 60 -26 20 5 79 -9 132 -32 107 -46 145 -36 201 48 38 59
9 156 -34 113 -23 -23 -119 -30 -139 -10 -7 6 19 39 56 72 44 38 76 89 89 143
11 46 28 108 38 138 11 33 11 59 0 66 -10 6 -28 52 -41 101 -49 196 -261 292
-496 225z m220 -159 c13 -23 19 -80 15 -125 -5 -46 3 -105 18 -133 78 -151
-46 -308 -156 -198 -35 35 -41 60 -34 146 6 70 0 112 -18 129 -33 31 -34 167
-2 199 41 41 152 30 177 -18z"/>
<path d="M2304 5926 c4 -39 20 -58 56 -66 46 -11 50 -20 46 -111 -5 -110 -5
-132 -4 -289 1 -180 69 -241 299 -270 200 -25 283 34 309 220 8 55 27 114 41
130 16 19 20 42 10 58 -41 67 12 202 79 202 109 0 86 112 -25 127 -47 6 -128
17 -180 25 l-95 13 0 -60 c0 -44 11 -63 41 -71 42 -11 40 -133 -5 -220 -10
-19 -13 -53 -6 -74 41 -128 -56 -251 -160 -204 -50 23 -76 191 -36 231 8 8 15
75 15 149 1 123 5 135 46 140 35 5 45 20 45 65 l0 59 -241 0 -242 0 7 -54z"/>
<path d="M3273 5855 c-18 -67 -17 -70 40 -84 57 -14 59 -159 2 -227 -13 -16
-22 -50 -19 -75 14 -106 -33 -209 -97 -209 -46 0 -59 -9 -59 -40 0 -22 -2 -46
-5 -54 -3 -7 72 -33 165 -56 94 -24 189 -50 213 -57 35 -12 46 -4 63 45 19 53
16 60 -28 71 -26 6 -48 24 -48 38 0 41 43 159 70 193 13 17 24 62 25 100 3
130 37 185 105 170 59 -13 120 55 83 93 -10 10 -468 137 -494 137 -2 0 -10
-20 -16 -45z"/>
<path d="M1030 5787 c-251 -81 -252 -81 -228 -144 15 -39 27 -44 77 -33 65 14
130 -86 117 -183 -3 -23 9 -60 27 -80 69 -79 87 -189 37 -227 -34 -25 -41 -45
-30 -79 16 -50 15 -51 250 19 83 25 161 47 174 51 53 15 -3 117 -64 118 -65 1
-121 130 -97 224 6 26 2 47 -9 47 -24 0 -88 178 -72 202 5 10 21 18 34 18 52
1 76 34 63 87 -16 65 -11 66 -279 -20z"/>
<path d="M3843 5689 c-30 -67 -32 -62 40 -87 71 -25 71 -104 0 -202 -20 -27
-42 -81 -48 -120 -25 -153 -48 -183 -125 -169 -56 11 -71 7 -73 -19 -2 -17 -4
-42 -5 -54 -1 -12 70 -51 158 -87 88 -36 217 -93 286 -127 103 -49 138 -57
188 -43 80 23 284 220 292 281 44 348 43 351 -187 465 -108 53 -483 213 -500
213 -1 0 -13 -23 -26 -51z m458 -260 c81 -41 81 -130 0 -211 -33 -33 -54 -72
-49 -87 14 -37 -43 -145 -90 -170 -35 -19 -162 6 -162 32 0 35 89 206 112 215
15 6 28 33 28 61 0 57 59 191 85 191 9 0 44 -14 76 -31z"/>
<path d="M260 5469 c-252 -133 -248 -129 -218 -196 23 -50 27 -52 71 -23 80
52 167 -27 167 -154 0 -33 12 -56 32 -60 18 -3 54 -46 81 -96 l48 -90 -48 -40
c-40 -33 -45 -48 -28 -85 27 -59 23 -60 206 45 87 50 218 114 291 142 l134 53
-56 152 c-31 84 -61 151 -68 149 -128 -39 -154 -57 -141 -95 40 -127 17 -211
-57 -211 -28 0 -94 151 -94 214 0 24 -13 51 -29 60 -86 48 -113 199 -41 226
45 17 47 24 27 69 -31 68 -35 67 -277 -60z"/>
<path d="M1172 4798 c-106 -83 -175 -309 -120 -393 44 -68 108 -28 108 66 0
232 140 299 223 107 105 -244 323 -243 447 1 44 87 81 121 131 121 10 0 44
-52 75 -115 133 -269 364 -271 515 -3 78 138 121 142 189 15 153 -283 386
-274 544 19 64 120 198 44 264 -150 63 -184 192 -166 -1189 -166 -1318 0
-1283 3 -1331 -111 -46 -111 -41 -2745 5 -2843 61 -128 40 -126 1321 -126
1124 0 1158 1 1222 41 126 76 124 57 124 1348 0 924 5 1171 25 1171 139 -2
379 -120 474 -235 257 -312 195 -983 -123 -1309 -158 -162 -235 -98 -81 69
405 442 262 1377 -200 1311 -91 -12 -61 -117 42 -147 335 -99 383 -720 81
-1039 -149 -158 -171 -322 -57 -415 160 -129 504 270 591 685 138 654 -153
1159 -700 1214 -185 19 -172 113 -172 -1253 0 -1047 -4 -1198 -31 -1237 l-31
-44 -1178 0 c-745 0 -1182 7 -1190 20 -16 26 -16 2714 0 2740 9 14 420 21
1256 19 1405 -2 1294 -15 1294 163 0 321 -280 610 -457 471 -15 -12 -54 -69
-87 -127 -99 -176 -227 -174 -309 5 -99 215 -273 236 -369 43 -115 -227 -258
-240 -344 -31 -91 219 -289 213 -406 -13 -90 -173 -197 -167 -252 15 -43 145
-192 201 -304 113z"/>
<path d="M1134 1073 c-31 -47 -30 -51 17 -82 72 -47 26 -231 -59 -231 -18 0
-25 -14 -18 -38 10 -38 -57 -189 -94 -212 -11 -7 -47 4 -80 23 -59 35 -117 7
-119 -58 -2 -32 632 -325 646 -298 44 79 31 117 -47 141 -87 26 -99 59 -57
151 27 60 39 62 120 20 70 -37 72 -36 96 48 20 70 18 73 -74 92 -75 16 -76 20
-33 124 41 99 33 94 114 60 80 -33 104 -84 75 -160 -19 -49 -15 -53 62 -74
113 -30 126 -20 153 123 27 148 32 142 -136 187 -100 26 -382 149 -522 226 -7
3 -27 -16 -44 -42z"/>
<path d="M3529 1101 c-10 -10 -68 -43 -129 -72 -60 -30 -113 -57 -116 -59 -25
-20 40 -105 74 -96 37 9 223 -299 197 -326 -4 -4 -93 79 -196 184 l-188 192
-144 -42 c-79 -23 -161 -42 -182 -42 -84 0 -73 -114 12 -124 61 -7 108 -151
70 -213 -16 -24 -11 -40 18 -63 60 -49 61 -228 0 -236 -47 -7 -52 -24 -33 -97
l12 -43 183 48 c248 66 235 59 215 112 -11 31 -37 49 -81 56 -61 9 -68 19
-113 160 -72 228 -62 239 70 76 65 -80 153 -179 195 -220 l77 -74 160 71 c209
92 204 81 117 238 -41 75 -73 157 -71 182 2 28 -10 49 -33 56 -21 7 -54 49
-74 93 l-37 82 47 35 c45 34 45 36 11 88 -40 61 -36 59 -61 34z"/>
<path d="M1896 783 c-7 -48 1 -64 39 -81 49 -23 49 -115 0 -210 -11 -20 -22
-108 -26 -194 -9 -232 83 -288 453 -275 272 10 308 37 308 233 0 77 6 147 14
155 8 8 1 33 -15 56 -46 66 -39 213 10 213 50 0 68 30 53 90 -10 41 -22 46
-77 38 -36 -5 -110 -11 -165 -14 -121 -5 -163 -95 -61 -133 55 -21 78 -202 30
-232 -14 -9 -14 -21 1 -39 110 -132 -47 -312 -201 -229 -50 26 -55 181 -8 220
21 17 24 32 10 46 -47 47 -25 212 30 234 85 32 62 127 -31 133 -151 9 -295 25
-324 37 -23 8 -33 -4 -40 -48z"/>
</g>
</svg>
